<svg width="32" height="32" viewBox="0 0 32 32" fill="none" xmlns="http://www.w3.org/2000/svg">
<path d="M26 0H32V6H28V4H26V0Z" fill="#1A1A1A"/>
<path d="M28 2H30V4H28V2Z" fill="white"/>
<path d="M14 4H16V8H14V12H18V14H16V16H14V18H12V20H10V22H8V24H6V22H4V24H6V26H8V28H10V26H8V24H10V22H12V20H14V18H16V20H22V22H20V24H16V26H14V32H2V30H0V18H4V16H8V14H10V8H12V6H14V4Z" fill="#1A1A1A"/>
<path d="M24 4H26V6H24V4Z" fill="#1A1A1A"/>
<path d="M26 4H28V6H26V4Z" fill="white"/>
<path d="M22 6H24V8H22V6Z" fill="#1A1A1A"/>
<path d="M24 6H26V8H24V6Z" fill="white"/>
<path d="M26 6H28V8H26V6Z" fill="#1A1A1A"/>
<path d="M20 8H22V10H20V8Z" fill="#1A1A1A"/>
<path d="M22 8H24V10H22V8Z" fill="white"/>
<path d="M24 8H26V10H24V8Z" fill="#1A1A1A"/>
<path d="M18 10H20V12H18V10Z" fill="#1A1A1A"/>
<path d="M20 10H22V12H20V10Z" fill="white"/>
<path d="M22 10H24V12H22V10Z" fill="#1A1A1A"/>
<path d="M18 12H20V14H18V12Z" fill="white"/>
<path d="M20 12H22V14H20V12Z" fill="#1A1A1A"/>
<path d="M16 14H18V16H16V14Z" fill="white"/>
<path d="M18 14H20V16H18V14Z" fill="#1A1A1A"/>
<path d="M14 16H16V18H14V16Z" fill="white"/>
<path d="M16 16H18V18H16V16Z" fill="#1A1A1A"/>
<path d="M12 18H14V20H12V18Z" fill="white"/>
<path d="M10 20H12V22H10V20Z" fill="white"/>
<path d="M4 22H6V24H4V22Z" fill="white"/>
<path d="M8 22H10V24H8V22Z" fill="white"/>
<path d="M6 24H8V26H6V24Z" fill="white"/>
<path d="M8 26H10V28H8V26Z" fill="white"/>
<path d="M0 30H2V32H0V30Z" fill="white"/>
</svg>
