<svg width="500" height="500" viewBox="0 0 500 500" fill="none" xmlns="http://www.w3.org/2000/svg">
<path d="M30 15C30 6.71572 23.2843 0 15 0C6.71572 0 0 6.71572 0 15C0 22.4868 5.48525 28.6925 12.6562 29.8178V19.3359H8.84766V15H12.6562V11.6953C12.6562 7.93594 14.8957 5.85938 18.322 5.85938C19.9626 5.85938 21.6797 6.15234 21.6797 6.15234V9.84375H19.7883C17.925 9.84375 17.3438 11.0001 17.3438 12.1875V15H21.5039L20.8389 19.3359H17.3438V29.8178C24.5147 28.6925 30 22.4868 30 15Z" fill="black"/>
<path d="M65.0088 2.7017C69.019 2.7017 69.4938 2.71928 71.0709 2.78961C72.5366 2.85407 73.3281 3.10022 73.8558 3.30533C74.5534 3.57492 75.0576 3.90311 75.5794 4.42469C76.1071 4.95214 76.4295 5.45028 76.6992 6.14769C76.9044 6.67513 77.1507 7.47216 77.2152 8.93143C77.2855 10.5138 77.3031 10.9885 77.3031 14.9912C77.3031 18.9998 77.2855 19.4745 77.2152 21.051C77.1507 22.5161 76.9044 23.3073 76.6992 23.8347C76.4295 24.5321 76.1012 25.0361 75.5794 25.5577C75.0518 26.0852 74.5534 26.4075 73.8558 26.6771C73.3281 26.8822 72.5308 27.1283 71.0709 27.1928C69.488 27.2631 69.0131 27.2807 65.0088 27.2807C60.9986 27.2807 60.5237 27.2631 58.9466 27.1928C57.4809 27.1283 56.6895 26.8822 56.1618 26.6771C55.4641 26.4075 54.9599 26.0793 54.4381 25.5577C53.9105 25.0303 53.588 24.5321 53.3184 23.8347C53.1132 23.3073 52.8669 22.5103 52.8024 21.051C52.7321 19.4686 52.7145 18.9939 52.7145 14.9912C52.7145 10.9826 52.7321 10.5079 52.8024 8.93143C52.8669 7.4663 53.1132 6.67513 53.3184 6.14769C53.588 5.45028 53.9164 4.94628 54.4381 4.42469C54.9658 3.89725 55.4641 3.57492 56.1618 3.30533C56.6895 3.10022 57.4868 2.85407 58.9466 2.78961C60.5237 2.71928 60.9986 2.7017 65.0088 2.7017ZM65.0088 0C60.9341 0 60.4241 0.0175816 58.8235 0.0879078C57.2288 0.158234 56.1325 0.416097 55.1827 0.78531C54.1919 1.1721 53.3535 1.68197 52.521 2.52002C51.6826 3.35222 51.1726 4.19027 50.7856 5.17484C50.4163 6.1301 50.1583 7.22016 50.0879 8.81422C50.0176 10.42 50 10.9299 50 15.0029C50 19.076 50.0176 19.5859 50.0879 21.1858C50.1583 22.7798 50.4163 23.8758 50.7856 24.8252C51.1726 25.8156 51.6826 26.6536 52.521 27.4858C53.3535 28.318 54.1919 28.8338 55.1769 29.2147C56.1325 29.5839 57.223 29.8418 58.8177 29.9121C60.4182 29.9824 60.9283 30 65.0029 30C69.0776 30 69.5876 29.9824 71.1882 29.9121C72.7829 29.8418 73.8792 29.5839 74.829 29.2147C75.814 28.8338 76.6523 28.318 77.4849 27.4858C78.3174 26.6536 78.8333 25.8156 79.2144 24.831C79.5837 23.8758 79.8417 22.7857 79.9121 21.1916C79.9824 19.5917 80 19.0819 80 15.0088C80 10.9357 79.9824 10.4259 79.9121 8.82594C79.8417 7.23188 79.5837 6.13596 79.2144 5.18656C78.845 4.19027 78.335 3.35222 77.4966 2.52002C76.6641 1.68783 75.8257 1.1721 74.8407 0.79117C73.8851 0.421957 72.7946 0.164095 71.1999 0.0937683C69.5935 0.0175816 69.0834 0 65.0088 0Z" fill="black"/>
<path d="M65.0089 7.29639C60.7525 7.29639 57.2993 10.7482 57.2993 15.003C57.2993 19.2577 60.7525 22.7096 65.0089 22.7096C69.2653 22.7096 72.7185 19.2577 72.7185 15.003C72.7185 10.7482 69.2653 7.29639 65.0089 7.29639ZM65.0089 20.002C62.2475 20.002 60.0079 17.7633 60.0079 15.003C60.0079 12.2427 62.2475 10.0039 65.0089 10.0039C67.7703 10.0039 70.0099 12.2427 70.0099 15.003C70.0099 17.7633 67.7703 20.002 65.0089 20.002Z" fill="black"/>
<path d="M74.8232 6.99156C74.8232 7.98785 74.0141 8.79075 73.0233 8.79075C72.0266 8.79075 71.2234 7.98199 71.2234 6.99156C71.2234 5.99528 72.0325 5.19238 73.0233 5.19238C74.0141 5.19238 74.8232 6.00114 74.8232 6.99156Z" fill="black"/>
<g clip-path="url(#clip0_2_2)">
<path fill-rule="evenodd" clip-rule="evenodd" d="M115 0.625C111.439 0.626848 107.995 1.88807 105.284 4.18315C102.572 6.47823 100.77 9.65751 100.199 13.1525C99.629 16.6475 100.327 20.2303 102.17 23.2602C104.012 26.2902 106.879 28.5697 110.256 29.6912C111.001 29.8295 111.282 29.3677 111.282 28.975C111.282 28.5823 111.267 27.4438 111.262 26.199C107.089 27.1005 106.207 24.4381 106.207 24.4381C105.527 22.7093 104.543 22.2549 104.543 22.2549C103.182 21.3312 104.645 21.3485 104.645 21.3485C106.153 21.4547 106.945 22.8871 106.945 22.8871C108.281 25.1667 110.455 24.5073 111.309 24.122C111.443 23.1563 111.833 22.4994 112.263 22.1264C108.93 21.751 105.428 20.4717 105.428 14.7568C105.407 13.2746 105.96 11.8413 106.972 10.7534C106.818 10.378 106.304 8.86154 107.119 6.80179C107.119 6.80179 108.378 6.40169 111.245 8.33055C113.703 7.66203 116.297 7.66203 118.756 8.33055C121.62 6.40169 122.877 6.80179 122.877 6.80179C123.694 8.8566 123.18 10.373 123.026 10.7534C124.041 11.8415 124.596 13.2773 124.573 14.7617C124.573 20.489 121.063 21.751 117.725 22.119C118.262 22.5833 118.741 23.4897 118.741 24.8827C118.741 26.8782 118.724 28.4835 118.724 28.975C118.724 29.3726 118.994 29.8369 119.754 29.6912C123.132 28.5696 125.999 26.2896 127.841 23.2592C129.684 20.2287 130.382 16.6454 129.811 13.1501C129.24 9.65475 127.437 6.47544 124.724 4.18076C122.012 1.88607 118.567 0.625676 115.005 0.625H115Z" fill="black"/>
<path d="M105.68 22.04C105.648 22.1141 105.529 22.1364 105.432 22.0845C105.335 22.0326 105.263 21.9363 105.298 21.8597C105.333 21.7832 105.449 21.7634 105.546 21.8153C105.643 21.8672 105.718 21.9659 105.68 22.04Z" fill="black"/>
<path d="M106.289 22.7142C106.238 22.7399 106.179 22.7471 106.123 22.7345C106.066 22.7219 106.016 22.6903 105.981 22.645C105.884 22.5413 105.864 22.398 105.939 22.3338C106.013 22.2696 106.147 22.2993 106.244 22.403C106.341 22.5067 106.364 22.65 106.289 22.7142Z" fill="black"/>
<path d="M106.88 23.5712C106.788 23.6354 106.632 23.5712 106.545 23.4428C106.521 23.4198 106.502 23.3921 106.489 23.3616C106.476 23.331 106.469 23.2982 106.469 23.265C106.469 23.2318 106.476 23.1989 106.489 23.1684C106.502 23.1378 106.521 23.1102 106.545 23.0872C106.637 23.0254 106.793 23.0872 106.88 23.2131C106.967 23.3391 106.97 23.507 106.88 23.5712V23.5712Z" fill="black"/>
<path d="M107.683 24.4011C107.601 24.4924 107.434 24.4677 107.298 24.3443C107.161 24.2208 107.129 24.0528 107.211 23.9639C107.293 23.875 107.459 23.8997 107.601 24.0207C107.742 24.1417 107.769 24.3121 107.683 24.4011V24.4011Z" fill="black"/>
<path d="M108.808 24.8852C108.77 25.0013 108.602 25.0532 108.433 25.0038C108.264 24.9544 108.152 24.8161 108.184 24.6975C108.217 24.579 108.388 24.5247 108.559 24.579C108.731 24.6333 108.84 24.7642 108.808 24.8852Z" fill="black"/>
<path d="M110.035 24.9691C110.035 25.0901 109.896 25.1938 109.717 25.1963C109.538 25.1988 109.392 25.1 109.392 24.979C109.392 24.858 109.531 24.7542 109.71 24.7518C109.888 24.7493 110.035 24.8456 110.035 24.9691Z" fill="black"/>
<path d="M111.177 24.7789C111.2 24.8999 111.076 25.0259 110.897 25.0555C110.718 25.0851 110.561 25.0135 110.539 24.895C110.517 24.7764 110.646 24.648 110.82 24.6159C110.994 24.5838 111.155 24.6579 111.177 24.7789Z" fill="black"/>
</g>
<path fill-rule="evenodd" clip-rule="evenodd" d="M165 0C156.719 0 150 6.71909 150 15C150 23.2809 156.719 30 165 30C173.265 30 180 23.2809 180 15C180 6.71909 173.265 0 165 0ZM174.908 6.91432C176.697 9.09436 177.771 11.8763 177.804 14.8861C177.381 14.8048 173.151 13.9425 168.888 14.4794C168.791 14.2679 168.709 14.0401 168.612 13.8124C168.351 13.1942 168.059 12.5597 167.766 11.9577C172.484 10.038 174.631 7.27223 174.908 6.91432ZM165 2.21258C168.254 2.21258 171.231 3.43276 173.492 5.43384C173.265 5.75922 171.329 8.34599 166.773 10.0542C164.675 6.19848 162.348 3.0423 161.99 2.55423C162.95 2.32646 163.959 2.21258 165 2.21258ZM159.55 3.41648C159.892 3.87202 162.169 7.04447 164.3 10.8188C158.313 12.4133 153.026 12.3807 152.457 12.3807C153.286 8.41106 155.971 5.10846 159.55 3.41648ZM152.18 15.0163C152.18 14.8861 152.18 14.756 152.18 14.6258C152.733 14.6421 158.948 14.7234 165.342 12.8037C165.716 13.5195 166.057 14.2516 166.383 14.9837C166.22 15.0325 166.041 15.0814 165.879 15.1301C159.273 17.2613 155.759 23.0857 155.466 23.5737C153.433 21.3124 152.18 18.3026 152.18 15.0163ZM165 27.8199C162.039 27.8199 159.306 26.8113 157.142 25.1193C157.37 24.6475 159.973 19.6367 167.196 17.115C167.229 17.0987 167.245 17.0987 167.278 17.0825C169.083 21.7516 169.816 25.6724 170.011 26.795C168.465 27.462 166.773 27.8199 165 27.8199ZM172.142 25.6237C172.012 24.8427 171.329 21.1009 169.653 16.4967C173.671 15.8622 177.185 16.9035 177.625 17.0499C177.072 20.6128 175.022 23.6876 172.142 25.6237Z" fill="black"/>
<path d="M19.269 50L20 50.7431L1.505 68.5L20 86.2569L19.269 87L0 68.5L19.269 50Z" fill="white"/>
<path d="M19.269 50L20 50.7431L1.505 68.5L20 86.2569L19.269 87L0 68.5L19.269 50Z" stroke="white"/>
<path d="M30.731 87L30 86.2569L48.495 68.5L30 50.7431L30.731 50L50 68.5L30.731 87Z" fill="white"/>
<path d="M30.731 87L30 86.2569L48.495 68.5L30 50.7431L30.731 50L50 68.5L30.731 87Z" stroke="white"/>
<path d="M120.44 50H116.977C116.668 50 116.417 50.2495 116.417 50.5572V64.0339C116.417 64.3416 116.668 64.5911 116.977 64.5911H120.44C120.749 64.5911 121 64.3416 121 64.0339V50.5572C121 50.2495 120.749 50 120.44 50Z" fill="white"/>
<path d="M114.023 50H110.56C110.251 50 110 50.2495 110 50.5572V64.0339C110 64.3416 110.251 64.5911 110.56 64.5911H114.023C114.333 64.5911 114.583 64.3416 114.583 64.0339V50.5572C114.583 50.2495 114.333 50 114.023 50Z" fill="white"/>
<path fill-rule="evenodd" clip-rule="evenodd" d="M90.2564 64.5651C90.1735 64.6198 90.0685 64.5852 90.022 64.4876C90.0076 64.4574 90.0001 64.424 90 64.39V50.2006C90 50.0912 90.077 50 90.1718 50C90.2014 50 90.231 50.0091 90.2564 50.0255L100.824 56.9442C100.878 56.9825 100.923 57.0346 100.953 57.0959C100.984 57.1572 101 57.2257 101 57.2953C101 57.3649 100.984 57.4335 100.953 57.4947C100.923 57.556 100.878 57.6081 100.824 57.6464L90.2555 64.5651H90.2564Z" fill="white"/>
<circle cx="57" cy="57" r="7" fill="white"/>
<circle cx="77" cy="57" r="5" stroke="white" stroke-width="4"/>
<defs>
<clipPath id="clip0_2_2">
<rect width="30" height="30" fill="white" transform="translate(100)"/>
</clipPath>
</defs>
</svg>
