<svg width="139" height="31" viewBox="0 0 139 31" fill="none" xmlns="http://www.w3.org/2000/svg">
<path d="M19.4891 30V16.3378H28.374L29.6947 10.9887H19.4891V7.58147C19.4891 6.0379 20.3181 4.98107 24.5887 4.98107H30V0.211982C27.3671 0.0656107 24.7206 -0.00506416 22.0726 0.000281988C14.2192 0.000281988 8.82712 2.48734 8.82712 7.05306V10.9787H0V16.3278H8.8464V30H19.4891Z" fill="#474747"/>
<path d="M64.9884 8.27197C62.9454 8.27197 60.986 9.0823 59.5414 10.5247C58.0967 11.9671 57.2852 13.9234 57.2852 15.9633C57.2852 18.0031 58.0967 19.9594 59.5414 21.4018C60.986 22.8442 62.9454 23.6545 64.9884 23.6545C67.0314 23.6545 68.9908 22.8442 70.4354 21.4018C71.8801 19.9594 72.6916 18.0031 72.6916 15.9633C72.6916 13.9234 71.8801 11.9671 70.4354 10.5247C68.9908 9.0823 67.0314 8.27197 64.9884 8.27197V8.27197ZM64.9884 20.9583C63.6611 20.9583 62.3882 20.4318 61.4497 19.4948C60.5112 18.5577 59.984 17.2868 59.984 15.9616C59.984 14.6364 60.5112 13.3655 61.4497 12.4284C62.3882 11.4914 63.6611 10.9649 64.9884 10.9649C66.3157 10.9649 67.5886 11.4914 68.5271 12.4284C69.4656 13.3655 69.9928 14.6364 69.9928 15.9616C69.9928 17.2868 69.4656 18.5577 68.5271 19.4948C67.5886 20.4318 66.3157 20.9583 64.9884 20.9583V20.9583Z" fill="#474747"/>
<path d="M72.9966 9.78269C73.9884 9.78269 74.7924 8.9799 74.7924 7.98961C74.7924 6.99932 73.9884 6.19653 72.9966 6.19653C72.0047 6.19653 71.2007 6.99932 71.2007 7.98961C71.2007 8.9799 72.0047 9.78269 72.9966 9.78269Z" fill="#474747"/>
<path d="M79.2054 6.16633C78.8197 5.17196 78.2303 4.26893 77.475 3.51507C76.7197 2.7612 75.815 2.17311 74.819 1.78842C73.6534 1.35156 72.422 1.11534 71.1773 1.08982C69.573 1.01996 69.0649 1 64.9967 1C60.9285 1 60.407 1 58.8161 1.08982C57.5723 1.11403 56.3418 1.3503 55.1777 1.78842C54.1814 2.17266 53.2765 2.7606 52.5211 3.51452C51.7657 4.26844 51.1765 5.1717 50.7913 6.16633C50.3537 7.33003 50.1176 8.55961 50.0933 9.8024C50.0217 11.4025 50 11.9098 50 15.9734C50 20.0353 50 20.5526 50.0933 22.1444C50.1183 23.3886 50.3532 24.6161 50.7913 25.7821C51.1776 26.7764 51.7674 27.6793 52.5229 28.4331C53.2785 29.1869 54.1832 29.7751 55.1794 30.16C56.3412 30.6144 57.5723 30.8676 58.8194 30.9085C60.4237 30.9784 60.9318 31 65 31C69.0682 31 69.5896 31 71.1806 30.9085C72.4252 30.8832 73.6565 30.6476 74.8223 30.2116C75.8181 29.826 76.7225 29.2374 77.4777 28.4833C78.233 27.7293 78.8225 26.8263 79.2087 25.832C79.6468 24.6677 79.8817 23.4401 79.9067 22.1959C79.9783 20.5958 80 20.0885 80 16.025C80 11.9614 80 11.4458 79.9067 9.85396C79.8873 8.5936 79.65 7.34606 79.2054 6.16633V6.16633ZM77.1763 22.0213C77.1655 22.9799 76.9903 23.9295 76.6582 24.829C76.408 25.4758 76.025 26.0632 75.5338 26.5534C75.0426 27.0435 74.4541 27.4256 73.8061 27.675C72.9152 28.0051 71.9742 28.18 71.024 28.1923C69.4414 28.2655 68.9949 28.2838 64.9367 28.2838C60.8752 28.2838 60.4604 28.2838 58.8477 28.1923C57.898 28.1807 56.9575 28.0057 56.0673 27.675C55.4171 27.4271 54.8262 27.0457 54.3329 26.5555C53.8396 26.0652 53.4549 25.4771 53.2036 24.829C52.8761 23.9392 52.701 23.0007 52.6855 22.0529C52.6138 20.4727 52.5972 20.0269 52.5972 15.9751C52.5972 11.9215 52.5972 11.5073 52.6855 9.89554C52.6962 8.9375 52.8715 7.98839 53.2036 7.08949C53.7117 5.77711 54.7529 4.74418 56.0673 4.24185C56.9579 3.91274 57.8982 3.7378 58.8477 3.72455C60.432 3.65303 60.8768 3.63307 64.9367 3.63307C68.9966 3.63307 69.413 3.63307 71.024 3.72455C71.9742 3.73596 72.9154 3.91096 73.8061 4.24185C74.454 4.4918 75.0424 4.87426 75.5336 5.36465C76.0248 5.85505 76.4078 6.44257 76.6582 7.08949C76.9856 7.97929 77.1607 8.91777 77.1763 9.8656C77.2479 11.4474 77.2662 11.8916 77.2662 15.9451C77.2662 19.997 77.2662 20.4328 77.1946 22.023H77.1763V22.0213Z" fill="#474747"/>
<path d="M138.207 5.24501C137.985 4.4307 137.551 3.68807 136.949 3.09104C136.346 2.49401 135.596 2.0634 134.773 1.84208C131.722 1.0135 119.513 1.00001 119.513 1.00001C119.513 1.00001 107.307 0.986526 104.254 1.77849C103.431 2.01 102.683 2.4467 102.08 3.04666C101.478 3.64662 101.041 4.3897 100.813 5.20455C100.008 8.2221 100 14.4807 100 14.4807C100 14.4807 99.9922 20.7702 100.791 23.7569C101.239 25.4083 102.555 26.7128 104.227 27.1579C107.309 27.9865 119.484 28 119.484 28C119.484 28 131.692 28.0135 134.744 27.2234C135.567 27.0025 136.318 26.5729 136.922 25.9771C137.526 25.3813 137.962 24.6399 138.187 23.8263C138.994 20.8107 139 14.554 139 14.554C139 14.554 139.039 8.26257 138.207 5.24501V5.24501ZM115.608 20.2788L115.618 8.71732L125.765 14.5077L115.608 20.2788V20.2788Z" fill="#474747"/>
</svg>
